<svg width="1191" height="165" viewBox="0 0 1191 165" fill="none" xmlns="http://www.w3.org/2000/svg">
<path fill-rule="evenodd" clip-rule="evenodd" d="M0.255249 9.98915e-05L49.8386 20.978C99.4219 41.9558 198.589 69.1012 297.755 84.0853C396.922 99.0695 496.089 87.0822 595.255 66.1043C694.422 45.1265 793.589 15.1581 892.755 27.1454C991.922 39.1328 1091.09 93.0759 1140.67 120.047L1190.26 147.019V165H1140.67C1091.09 165 991.922 165 892.755 165C793.589 165 694.422 165 595.255 165C496.089 165 396.922 165 297.755 165C198.589 165 99.4219 165 49.8386 165H0.255249V9.98915e-05Z" fill="#1C77A2"/>
<path fill-rule="evenodd" clip-rule="evenodd" d="M0.255249 83.8842L49.8386 63.6052C99.4219 43.3262 198.589 2.76817 297.755 9.52784C396.922 16.2875 496.089 70.3649 595.255 87.2641C694.422 104.163 793.589 83.8842 892.755 83.8842C991.922 83.8842 1091.09 104.163 1140.67 114.303L1190.26 124.442V165H1140.67C1091.09 165 991.922 165 892.755 165C793.589 165 694.422 165 595.255 165C496.089 165 396.922 165 297.755 165C198.589 165 99.4219 165 49.8386 165H0.255249V83.8842Z" fill="#0096B1"/>
<path fill-rule="evenodd" clip-rule="evenodd" d="M0.255249 93.0318L42.326 103.564C78.3866 114.096 156.518 133.404 240.659 128.138C318.791 122.872 396.922 93.0318 475.053 84.2552C553.185 75.4786 637.326 89.5211 715.457 101.808C793.589 114.096 871.72 122.872 949.851 115.851C1033.99 110.585 1112.12 86.0105 1148.18 73.7233L1190.26 61.436V165H1148.18C1112.12 165 1033.99 165 949.851 165C871.72 165 793.589 165 715.457 165C637.326 165 553.185 165 475.053 165C396.922 165 318.791 165 240.659 165C156.518 165 78.3866 165 42.326 165H0.255249V93.0318Z" fill="#0FB3B2"/>
</svg>
