<svg width="46" height="48" viewBox="0 0 46 48" fill="none" xmlns="http://www.w3.org/2000/svg">
<path d="M15.3333 6.00049C10.0414 6.00049 5.75 10.4785 5.75 16.0005V32.0005C5.75 37.5225 10.0414 42.0005 15.3333 42.0005H30.6667C35.9586 42.0005 40.25 37.5225 40.25 32.0005V16.0005C40.25 10.4785 35.9586 6.00049 30.6667 6.00049H15.3333ZM34.5 10.0005C35.558 10.0005 36.4167 10.8965 36.4167 12.0005C36.4167 13.1045 35.558 14.0005 34.5 14.0005C33.442 14.0005 32.5833 13.1045 32.5833 12.0005C32.5833 10.8965 33.442 10.0005 34.5 10.0005ZM23 14.0005C28.2919 14.0005 32.5833 18.4785 32.5833 24.0005C32.5833 29.5225 28.2919 34.0005 23 34.0005C17.7081 34.0005 13.4167 29.5225 13.4167 24.0005C13.4167 18.4785 17.7081 14.0005 23 14.0005ZM23 18.0005C21.475 18.0005 20.0125 18.6326 18.9341 19.7578C17.8558 20.8831 17.25 22.4092 17.25 24.0005C17.25 25.5918 17.8558 27.1179 18.9341 28.2431C20.0125 29.3683 21.475 30.0005 23 30.0005C24.525 30.0005 25.9875 29.3683 27.0659 28.2431C28.1442 27.1179 28.75 25.5918 28.75 24.0005C28.75 22.4092 28.1442 20.8831 27.0659 19.7578C25.9875 18.6326 24.525 18.0005 23 18.0005Z" fill="white"/>
</svg>
