<svg width="390" height="94" viewBox="0 0 390 94" fill="none" xmlns="http://www.w3.org/2000/svg">
<path fill-rule="evenodd" clip-rule="evenodd" d="M0 5.69079e-05L16.25 11.9511C32.5 23.9021 65 39.3667 97.5 47.9032C130 56.4396 162.5 49.6104 195 37.6594C227.5 25.7084 260 8.6355 292.5 15.4647C325 22.2938 357.5 53.0251 373.75 68.3907L390 83.7563V94H373.75C357.5 94 325 94 292.5 94C260 94 227.5 94 195 94C162.5 94 130 94 97.5 94C65 94 32.5 94 16.25 94H0V5.69079e-05Z" fill="#1C77A2"/>
<path fill-rule="evenodd" clip-rule="evenodd" d="M0 47.7884L16.25 36.2355C32.5 24.6827 65 1.57687 97.5 5.42784C130 9.2788 162.5 40.0865 195 49.7139C227.5 59.3413 260 47.7884 292.5 47.7884C325 47.7884 357.5 59.3413 373.75 65.1178L390 70.8942V94H373.75C357.5 94 325 94 292.5 94C260 94 227.5 94 195 94C162.5 94 130 94 97.5 94C65 94 32.5 94 16.25 94H0V47.7884Z" fill="#0096B1"/>
<path fill-rule="evenodd" clip-rule="evenodd" d="M0 53L13.7879 59C25.6061 65 51.2121 76 78.7879 73C104.394 70 130 53 155.606 48C181.212 43 208.788 51 234.394 58C260 65 285.606 70 311.212 66C338.788 63 364.394 49 376.212 42L390 35V94H376.212C364.394 94 338.788 94 311.212 94C285.606 94 260 94 234.394 94C208.788 94 181.212 94 155.606 94C130 94 104.394 94 78.7879 94C51.2121 94 25.6061 94 13.7879 94H0V53Z" fill="#0FB3B2"/>
</svg>
