<svg width="33" height="34" viewBox="0 0 33 34" fill="none" xmlns="http://www.w3.org/2000/svg">
<mask id="mask0_60_104" style="mask-type:luminance" maskUnits="userSpaceOnUse" x="0" y="0" width="33" height="34">
<path d="M0 33.644L33 33.644L33 0.644043L2.88495e-06 0.64404L0 33.644Z" fill="white"/>
</mask>
<g mask="url(#mask0_60_104)">
<path d="M1.51802 18.7941L11.187 28.4631C12.078 29.3541 13.563 29.3541 14.454 28.4631C15.345 27.5721 15.345 26.0871 14.454 25.1961L8.74502 19.4541L29.8651 19.4541C31.1521 19.4541 32.175 18.4311 32.175 17.1441C32.175 15.8571 31.1521 14.8341 29.8651 14.8341L8.74502 14.8341L14.454 9.1251C15.345 8.2341 15.345 6.7491 14.454 5.8581C13.992 5.3961 13.398 5.1651 12.804 5.1651C12.21 5.1651 11.616 5.3961 11.154 5.8581L1.51802 15.4941C1.08902 15.9231 0.825021 16.5171 0.825021 17.1441C0.825021 17.7711 1.05602 18.3651 1.51802 18.7941Z" fill="#1C77A2"/>
</g>
</svg>
