<svg width="80" height="56" viewBox="0 0 80 56" fill="none" xmlns="http://www.w3.org/2000/svg">
<path fill-rule="evenodd" clip-rule="evenodd" d="M0 37.3333C0 47.6429 8.13999 56 18.1818 56C28.2235 56 36.3635 47.6429 36.3635 37.3333C36.3635 27.1506 28.4183 18.8774 18.547 18.6765C23.1374 14.0547 29.4244 11.1997 36.3635 11.1997V0C16.2808 0 0 16.7151 0 37.3333ZM80 0C59.9175 0 43.6365 16.7151 43.6365 37.3333C43.6365 47.6429 51.7775 56 61.8183 56C71.8601 56 80 47.6429 80 37.3333C80 27.1506 72.0548 18.8774 62.1835 18.6765C66.774 14.0547 73.0618 11.1997 80 11.1997V0Z" fill="#FFFCF9"/>
</svg>
