<svg width="33" height="34" viewBox="0 0 33 34" fill="none" xmlns="http://www.w3.org/2000/svg">
<mask id="mask0_60_102" style="mask-type:luminance" maskUnits="userSpaceOnUse" x="0" y="0" width="33" height="34">
<path d="M33 0.644043H0V33.644H33V0.644043Z" fill="white"/>
</mask>
<g mask="url(#mask0_60_102)">
<path d="M31.482 15.494L21.813 5.82499C20.922 4.93399 19.437 4.93399 18.546 5.82499C17.655 6.71599 17.655 8.20099 18.546 9.09199L24.255 14.834H3.13495C1.84795 14.834 0.824951 15.857 0.824951 17.144C0.824951 18.431 1.84795 19.454 3.13495 19.454H24.255L18.546 25.163C17.655 26.054 17.655 27.539 18.546 28.43C19.008 28.892 19.602 29.123 20.196 29.123C20.79 29.123 21.384 28.892 21.846 28.43L31.482 18.794C31.911 18.365 32.175 17.771 32.175 17.144C32.175 16.517 31.944 15.923 31.482 15.494Z" fill="#1C77A2"/>
</g>
</svg>
