<svg width="135" height="64" viewBox="0 0 135 64" fill="none" xmlns="http://www.w3.org/2000/svg">
<mask id="mask0_67_25" style="mask-type:luminance" maskUnits="userSpaceOnUse" x="36" y="0" width="65" height="64">
<path d="M86.5685 -9.53201e-05L36.0829 13.4495L49.6105 63.6439L100.096 50.1943L86.5685 -9.53201e-05Z" fill="white"/>
</mask>
<g mask="url(#mask0_67_25)">
<path d="M74.1769 54.4096C69.6837 55.6066 64.9342 55.452 60.5293 53.9654C56.1244 52.4787 52.2617 49.7268 49.4299 46.0575C46.598 42.3883 44.9241 37.9666 44.62 33.3514C44.3157 28.7364 45.3947 24.1353 47.7206 20.1299C50.0465 16.1246 53.5149 12.8949 57.6869 10.8493C61.859 8.8037 66.5475 8.03414 71.1595 8.63782C75.7715 9.24151 80.0997 11.1913 83.5974 14.2408C87.0944 17.2903 89.6042 21.3024 90.8077 25.7697C92.4155 31.7601 91.5667 38.1397 88.4492 43.5088C85.331 48.878 80.1985 52.7983 74.1769 54.4096ZM62.7177 11.8898C58.7527 12.9461 55.1917 15.1477 52.4851 18.2162C49.7785 21.2847 48.0479 25.0823 47.512 29.1286C46.9762 33.175 47.6593 37.2885 49.4749 40.9488C51.2905 44.6092 54.157 47.6521 57.712 49.6928C61.267 51.7334 65.3508 52.6802 69.447 52.4132C73.5432 52.1463 77.4677 50.6777 80.7247 48.1932C83.9814 45.7086 86.4238 42.3198 87.7434 38.4551C89.0622 34.5903 89.2 30.4234 88.1371 26.4812C86.7074 21.198 83.2284 16.6943 78.4628 13.9588C73.6971 11.2232 68.0345 10.4791 62.7177 11.8898Z" fill="#0FB3B2"/>
<path d="M59.1916 32.557C60.7056 32.1537 61.6041 30.6064 61.1984 29.1012C60.7927 27.5958 59.2365 26.7026 57.7225 27.1059C56.2085 27.5092 55.31 29.0564 55.7157 30.5618C56.1214 32.067 57.6776 32.9604 59.1916 32.557Z" fill="#0FB3B2"/>
<path d="M76.1649 28.0353C77.6789 27.632 78.5774 26.0847 78.1717 24.5794C77.766 23.0741 76.2098 22.1808 74.6958 22.5842C73.1817 22.9875 72.2833 24.5347 72.689 26.0401C73.0946 27.5453 74.6508 28.4387 76.1649 28.0353Z" fill="#0FB3B2"/>
<path d="M71.1875 44.3817C70.8812 44.4632 70.5735 44.5327 70.2643 44.59C66.9858 45.1181 63.6265 44.4296 60.8255 42.6554C60.566 42.4346 60.3977 42.1262 60.353 41.7896C60.3083 41.4529 60.3902 41.1117 60.5831 40.8315C60.776 40.5513 61.0663 40.3518 61.3981 40.2713C61.7299 40.1909 62.0799 40.2352 62.3809 40.3957C62.7182 40.6233 70.7658 45.9089 77.4268 36.2314C77.5211 36.0658 77.649 35.9215 77.8023 35.8075C77.9556 35.6935 78.131 35.6123 78.3174 35.5692C78.5039 35.5259 78.6973 35.5216 78.8854 35.5565C79.0736 35.5914 79.2525 35.6646 79.4108 35.7717C79.5691 35.8787 79.7033 36.0172 79.8051 36.1784C79.9069 36.3396 79.9738 36.52 80.0019 36.7083C80.03 36.8966 80.0185 37.0886 79.9682 37.2722C79.9179 37.4558 79.8298 37.6271 79.7096 37.7752C77.2945 41.3022 74.4286 43.5182 71.1875 44.3817Z" fill="#0FB3B2"/>
</g>
<path d="M120.228 36.0825L118.767 41.2874L117.317 36.1199L117.313 36.1061L117.309 36.0923C117.051 35.2389 116.373 34.5647 115.515 34.3086L115.501 34.3045L115.487 34.3007L110.271 32.8534L115.487 31.406L115.501 31.4021L115.515 31.3981C116.373 31.1421 117.051 30.4678 117.309 29.6145L117.313 29.6007L117.317 29.5869L118.773 24.397L120.229 29.5516L120.232 29.5643L120.237 29.577C120.494 30.4304 121.172 31.1046 122.03 31.3606L122.044 31.3648L122.058 31.3687L127.274 32.8159L122.058 34.2632L122.044 34.2671L122.03 34.2713C121.172 34.5273 120.494 35.2015 120.237 36.0549L120.232 36.0686L120.228 36.0825Z" fill="#0FB3B2" stroke="#0FB3B2" stroke-width="4"/>
<path d="M17.6834 36.0825L16.2224 41.2874L14.772 36.1199L14.7681 36.1061L14.764 36.0923C14.5064 35.2389 13.8283 34.5647 12.97 34.3086L12.9561 34.3045L12.9422 34.3007L7.72591 32.8534L12.9422 31.406L12.9561 31.4021L12.97 31.3981C13.8283 31.1421 14.5064 30.4678 14.764 29.6145L14.7681 29.6007L14.772 29.5869L16.2287 24.397L17.684 29.5516L17.6876 29.5643L17.6914 29.577C17.9489 30.4304 18.6271 31.1046 19.4854 31.3606L19.4992 31.3648L19.5131 31.3687L24.7295 32.8159L19.5131 34.2632L19.4992 34.2671L19.4854 34.2713C18.6271 34.5273 17.9489 35.2015 17.6914 36.0549L17.6872 36.0686L17.6834 36.0825Z" fill="#0FB3B2" stroke="#0FB3B2" stroke-width="4"/>
</svg>
