<svg id="visual" viewBox="0 0 900 250" width="900" height="250" xmlns="http://www.w3.org/2000/svg" xmlns:xlink="http://www.w3.org/1999/xlink" version="1.1"><path d="M0 61L82 61L82 44L164 44L164 46L245 46L245 34L327 34L327 56L409 56L409 34L491 34L491 31L573 31L573 54L655 54L655 59L736 59L736 39L818 39L818 44L900 44L900 49L900 0L900 0L818 0L818 0L736 0L736 0L655 0L655 0L573 0L573 0L491 0L491 0L409 0L409 0L327 0L327 0L245 0L245 0L164 0L164 0L82 0L82 0L0 0Z" fill="#0fb3b2"></path><path d="M0 129L82 129L82 119L164 119L164 101L245 101L245 116L327 116L327 101L409 101L409 81L491 81L491 91L573 91L573 136L655 136L655 139L736 139L736 116L818 116L818 91L900 91L900 141L900 47L900 42L818 42L818 37L736 37L736 57L655 57L655 52L573 52L573 29L491 29L491 32L409 32L409 54L327 54L327 32L245 32L245 44L164 44L164 42L82 42L82 59L0 59Z" fill="#6bc6c5"></path><path d="M0 156L82 156L82 161L164 161L164 126L245 126L245 146L327 146L327 139L409 139L409 126L491 126L491 139L573 139L573 166L655 166L655 179L736 179L736 159L818 159L818 116L900 116L900 174L900 139L900 89L818 89L818 114L736 114L736 137L655 137L655 134L573 134L573 89L491 89L491 79L409 79L409 99L327 99L327 114L245 114L245 99L164 99L164 117L82 117L82 127L0 127Z" fill="#a1d9d8"></path><path d="M0 189L82 189L82 194L164 194L164 154L245 154L245 166L327 166L327 174L409 174L409 151L491 151L491 156L573 156L573 204L655 204L655 206L736 206L736 199L818 199L818 156L900 156L900 199L900 172L900 114L818 114L818 157L736 157L736 177L655 177L655 164L573 164L573 137L491 137L491 124L409 124L409 137L327 137L327 144L245 144L245 124L164 124L164 159L82 159L82 154L0 154Z" fill="#d1eceb"></path><path d="M0 251L82 251L82 251L164 251L164 251L245 251L245 251L327 251L327 251L409 251L409 251L491 251L491 251L573 251L573 251L655 251L655 251L736 251L736 251L818 251L818 251L900 251L900 251L900 197L900 154L818 154L818 197L736 197L736 204L655 204L655 202L573 202L573 154L491 154L491 149L409 149L409 172L327 172L327 164L245 164L245 152L164 152L164 192L82 192L82 187L0 187Z" fill="#ffffff"></path></svg>