<svg width="48" height="48" viewBox="0 0 48 48" fill="none" xmlns="http://www.w3.org/2000/svg">
<path d="M37.7143 6.00049H10.2857C7.92257 6.00049 6 7.92306 6 10.2862V37.7148C6 40.0779 7.92257 42.0005 10.2857 42.0005H37.7143C40.0774 42.0005 42 40.0779 42 37.7148V10.2862C42 7.92306 40.0774 6.00049 37.7143 6.00049ZM34.2909 21.7059C34.0963 21.7239 33.8991 21.7359 33.6994 21.7359C31.4511 21.7359 29.4754 20.5796 28.326 18.8319C28.326 23.4168 28.326 28.6333 28.326 28.7208C28.326 32.7571 25.0534 36.0296 21.0171 36.0296C16.9809 36.0296 13.7083 32.7571 13.7083 28.7208C13.7083 24.6845 16.9809 21.4119 21.0171 21.4119C21.1697 21.4119 21.3189 21.4256 21.4689 21.4351V25.0368C21.3189 25.0188 21.1714 24.9913 21.0171 24.9913C18.9566 24.9913 17.2869 26.6611 17.2869 28.7216C17.2869 30.7822 18.9566 32.4519 21.0171 32.4519C23.0777 32.4519 24.8974 30.8285 24.8974 28.7679C24.8974 28.6865 24.9334 11.9731 24.9334 11.9731H28.3757C28.6997 15.0511 31.1846 17.4802 34.2909 17.7031V21.7059Z" fill="white"/>
</svg>
