<svg width="136" height="44" viewBox="0 0 136 44" fill="none" xmlns="http://www.w3.org/2000/svg">
<path d="M120.838 25.2079L119.377 30.4005L117.927 25.2452L117.923 25.2314L117.919 25.2177C117.662 24.3664 116.983 23.6937 116.125 23.4382L116.111 23.4342L116.097 23.4303L110.881 21.9864L116.097 20.5425L116.111 20.5386L116.125 20.5346C116.983 20.2792 117.662 19.6065 117.919 18.7552L117.923 18.7415L117.927 18.7276L119.384 13.55L120.839 18.6925L120.843 18.7051L120.847 18.7178C121.104 19.5692 121.782 20.2418 122.64 20.4972L122.654 20.5014L122.668 20.5052L127.885 21.9491L122.668 23.393L122.654 23.3968L122.64 23.401C121.782 23.6564 121.104 24.329 120.847 25.1803L120.842 25.1941L120.838 25.2079Z" fill="white" stroke="white" stroke-width="4"/>
<path d="M18.2933 25.2079L16.8323 30.4005L15.3818 25.2452L15.3779 25.2314L15.3738 25.2177C15.1163 24.3664 14.4381 23.6937 13.5798 23.4382L13.566 23.4342L13.552 23.4303L8.33575 21.9864L13.552 20.5425L13.566 20.5386L13.5798 20.5346C14.4381 20.2792 15.1163 19.6065 15.3738 18.7552L15.3779 18.7415L15.3818 18.7276L16.8386 13.55L18.2939 18.6925L18.2975 18.7051L18.3013 18.7178C18.5588 19.5692 19.2369 20.2418 20.0952 20.4972L20.1091 20.5014L20.123 20.5052L25.3393 21.9491L20.123 23.393L20.1091 23.3968L20.0952 23.401C19.2369 23.6564 18.5588 24.329 18.3013 25.1803L18.2972 25.1941L18.2933 25.2079Z" fill="white" stroke="white" stroke-width="4"/>
<path d="M81.958 10.4832C79.9327 4.75678 74.4492 0.644043 67.9842 0.644043C61.5192 0.644043 56.0357 4.75678 54.0103 10.4832C48.0179 10.8883 43.2836 15.7703 43.2836 21.75C43.2836 30.5471 54.8106 43.1107 54.8106 43.1107C54.8106 43.1107 58.2077 39.3949 61.3151 34.5994C64.7583 39.5533 67.9842 43.1107 67.9842 43.1107C67.9842 43.1107 71.2101 39.5533 74.6534 34.5994C77.7607 39.3949 81.1579 43.1107 81.1579 43.1107C81.1579 43.1107 92.6848 30.5471 92.6848 21.7516C92.6848 15.772 87.9505 10.8883 81.958 10.4832ZM54.8106 15.344C54.8106 8.13941 60.7206 2.27738 67.9842 2.27738C75.2478 2.27738 81.1579 8.13941 81.1579 15.344C81.1579 24.1444 71.4637 36.463 67.9842 40.6003C64.5047 36.463 54.8106 24.1444 54.8106 15.344ZM54.8106 40.6068C51.9288 37.1752 44.9303 28.182 44.9303 21.7516C44.9303 16.8467 48.6799 12.7928 53.5212 12.1705C53.2923 13.1929 53.1639 14.253 53.1639 15.344C53.1639 15.9614 53.2149 16.5952 53.2956 17.2371C51.3146 17.8741 49.8704 19.6985 49.8704 21.8774C49.8704 24.5838 52.082 26.7774 54.8106 26.7774C55.3787 26.7774 55.9139 26.663 56.4227 26.4883C57.5836 28.7994 58.9421 31.0551 60.3171 33.1261C58.3312 36.267 56.1362 39.0274 54.8106 40.6068ZM81.1579 40.6068C79.8323 39.0274 77.6372 36.267 75.6513 33.1261C77.0263 31.0551 78.3848 28.7994 79.5457 26.4883C80.0546 26.663 80.5898 26.7774 81.1579 26.7774C83.8862 26.7774 86.098 24.5838 86.098 21.8774C86.098 19.7001 84.6541 17.8741 82.6728 17.2371C82.7537 16.5952 82.8046 15.9614 82.8046 15.344C82.8046 14.253 82.6758 13.1929 82.4475 12.1705C87.2866 12.7928 91.0381 16.8467 91.0381 21.7516C91.0381 28.182 84.0396 37.1752 81.1579 40.6068Z" fill="white"/>
<path d="M67.9842 21.8775C71.622 21.8775 74.5711 18.9524 74.5711 15.3441C74.5711 11.7359 71.622 8.81079 67.9842 8.81079C64.3464 8.81079 61.3974 11.7359 61.3974 15.3441C61.3974 18.9524 64.3464 21.8775 67.9842 21.8775Z" fill="white"/>
</svg>
