<svg id="visual" viewBox="0 0 900 100" width="900" height="100" xmlns="http://www.w3.org/2000/svg" xmlns:xlink="http://www.w3.org/1999/xlink" version="1.1"><path d="M0 3L25 9.3C50 15.7 100 28.3 150 35.8C200 43.3 250 45.7 300 40.2C350 34.7 400 21.3 450 21.3C500 21.3 550 34.7 600 35.3C650 36 700 24 750 18.5C800 13 850 14 875 14.5L900 15L900 0L875 0C850 0 800 0 750 0C700 0 650 0 600 0C550 0 500 0 450 0C400 0 350 0 300 0C250 0 200 0 150 0C100 0 50 0 25 0L0 0Z" fill="#ffffff"></path><path d="M0 61L25 65C50 69 100 77 150 76.2C200 75.3 250 65.7 300 58C350 50.3 400 44.7 450 49.3C500 54 550 69 600 75.3C650 81.7 700 79.3 750 81C800 82.7 850 88.3 875 91.2L900 94L900 13L875 12.5C850 12 800 11 750 16.5C700 22 650 34 600 33.3C550 32.7 500 19.3 450 19.3C400 19.3 350 32.7 300 38.2C250 43.7 200 41.3 150 33.8C100 26.3 50 13.7 25 7.3L0 1Z" fill="#a1d9d8"></path><path d="M0 101L25 101C50 101 100 101 150 101C200 101 250 101 300 101C350 101 400 101 450 101C500 101 550 101 600 101C650 101 700 101 750 101C800 101 850 101 875 101L900 101L900 92L875 89.2C850 86.3 800 80.7 750 79C700 77.3 650 79.7 600 73.3C550 67 500 52 450 47.3C400 42.7 350 48.3 300 56C250 63.7 200 73.3 150 74.2C100 75 50 67 25 63L0 59Z" fill="#0fb3b2"></path></svg>