<svg width="900" height="100" viewBox="0 0 900 100" fill="none" xmlns="http://www.w3.org/2000/svg">
    <rect width="900" height="100" fill="white"/>
    <path d="M0 60L25 64C50 68 100 76 150 75.2C200 74.3 250 64.7 300 57C350 49.3 400 43.7 450 48.3C500 53 550 68 600 74.3C650 80.7 700 78.3 750 80C800 81.7 850 87.3 875 90.2L900 93V12L875 11.5C850 11 800 10 750 15.5C700 21 650 33 600 32.3C550 31.7 500 18.3 450 18.3C400 18.3 350 31.7 300 37.2C250 42.7 200 40.3 150 32.8C100 25.3 50 12.7 25 6.3L0 0V60Z" fill="#A1D9D8"/>
    <path d="M0 100C300 100 600 100 900 100V92.0001L875 89.2001C850 86.3001 800 80.7001 750 79.0001C700 77.3001 650 79.7001 600 73.3001C550 67.0001 500 52.0001 450 47.3001C400 42.7001 350 48.3001 300 56.0001C250 63.7001 200 73.3001 150 74.2001C100 75.0001 50 67.0001 25 63.0001L0 59.0001V100Z" fill="#0FB3B2"/>
</svg>