<svg width="136" height="48" viewBox="0 0 136 48" fill="none" xmlns="http://www.w3.org/2000/svg">
<path d="M52.2259 44V26H56.2259V16.1L49.6259 9.50001L56.9259 2.20001L59.0259 4.30001L53.8259 9.50001L59.2259 14.9V26H63.2259V44H52.2259ZM69.2259 44V26H73.2259V19.35C71.4926 18.9833 70.0592 18.0917 68.9259 16.675C67.7926 15.2583 67.2259 13.6167 67.2259 11.75C67.2259 9.61668 67.9509 7.79168 69.4009 6.27501C70.8509 4.75835 72.6259 4.00001 74.7259 4.00001C76.8259 4.00001 78.6009 4.75835 80.0509 6.27501C81.5009 7.79168 82.2259 9.61668 82.2259 11.75C82.2259 13.6167 81.6592 15.2583 80.5259 16.675C79.3926 18.0917 77.9592 18.9833 76.2259 19.35V26H80.2259V44H69.2259ZM74.7259 16.5C75.9926 16.5 77.0592 16.0333 77.9259 15.1C78.7926 14.1667 79.2259 13.05 79.2259 11.75C79.2259 10.45 78.7926 9.33335 77.9259 8.40001C77.0592 7.46668 75.9926 7.00001 74.7259 7.00001C73.4592 7.00001 72.3926 7.46668 71.5259 8.40001C70.6592 9.33335 70.2259 10.45 70.2259 11.75C70.2259 13.05 70.6592 14.1667 71.5259 15.1C72.3926 16.0333 73.4592 16.5 74.7259 16.5Z" fill="black"/>
<path d="M120.728 27.6855L119.267 32.8904L117.817 27.7229L117.813 27.7091L117.809 27.6953C117.551 26.842 116.873 26.1677 116.015 25.9117L116.001 25.9076L115.987 25.9037L110.771 24.4564L115.987 23.009L116.001 23.0052L116.015 23.0011C116.873 22.7451 117.551 22.0708 117.809 21.2175L117.813 21.2037L117.817 21.1899L119.273 16L120.729 21.1546L120.732 21.1673L120.737 21.1801C120.994 22.0334 121.672 22.7076 122.53 22.9636L122.544 22.9678L122.558 22.9717L127.774 24.419L122.558 25.8663L122.544 25.8701L122.53 25.8743C121.672 26.1303 120.994 26.8045 120.737 27.6579L120.732 27.6717L120.728 27.6855Z" fill="black" stroke="black" stroke-width="4"/>
<path d="M18.1834 27.6855L16.7224 32.8904L15.272 27.7229L15.2681 27.7091L15.264 27.6953C15.0064 26.842 14.3283 26.1677 13.47 25.9117L13.4561 25.9076L13.4422 25.9037L8.22591 24.4564L13.4422 23.009L13.4561 23.0052L13.47 23.0011C14.3283 22.7451 15.0064 22.0708 15.264 21.2175L15.2681 21.2037L15.272 21.1899L16.7287 16L18.184 21.1546L18.1876 21.1673L18.1914 21.1801C18.4489 22.0334 19.1271 22.7076 19.9854 22.9636L19.9992 22.9678L20.0131 22.9717L25.2295 24.419L20.0131 25.8663L19.9992 25.8701L19.9854 25.8743C19.1271 26.1303 18.4489 26.8045 18.1914 27.6579L18.1872 27.6717L18.1834 27.6855Z" fill="black" stroke="black" stroke-width="4"/>
</svg>
