<svg width="20" height="48" viewBox="0 0 20 48" fill="none" xmlns="http://www.w3.org/2000/svg">
<g clip-path="url(#clip0_611_126)">
<path opacity="0.3" d="M10 32C14.9706 32 19 29.7614 19 27C19 24.2386 14.9706 22 10 22C5.02944 22 1 24.2386 1 27C1 29.7614 5.02944 32 10 32Z" fill="#C4C4C4"/>
<g opacity="0.3">
<path fill-rule="evenodd" clip-rule="evenodd" d="M10 32C15 32 19 29.8 19 27C19 24.2 15 22 10 22C5 22 1 24.2 1 27C1 29.8 5 32 10 32Z" fill="#BFBFBF"/>
</g>
<path d="M19.2499 10.4C19.1337 12.2242 18.6361 14.0037 17.7892 15.6235C16.8522 17.554 15.767 19.409 14.5433 21.1718C13.3604 22.9087 12.1771 24.4502 11.2892 25.5577C10.8454 26.1113 10.4757 26.5561 10.2171 26.8623C10.1327 26.9623 10.0601 27.0475 10.0007 27.1168C9.94069 27.0468 9.86819 26.9604 9.78339 26.859C9.52469 26.5502 9.15499 26.1019 8.71109 25.5443C7.82319 24.4289 6.63969 22.8779 5.45679 21.1343C4.23519 19.3683 3.14995 17.5117 2.21049 15.5808C1.3669 13.9749 0.869336 12.21 0.749887 10.4C0.700513 7.89475 1.64648 5.47212 3.38042 3.6632C5.11436 1.85428 7.49479 0.806665 9.99989 0.75C12.505 0.806665 14.8854 1.85428 16.6194 3.6632C18.3533 5.47212 19.2993 7.89475 19.2499 10.4Z" fill="#0096B1" stroke="#007BA4" stroke-width="0.5"/>
<path d="M13.5497 9.99995C13.5497 10.7021 13.3415 11.3884 12.9514 11.9722C12.5613 12.556 12.0069 13.011 11.3582 13.2797C10.7096 13.5484 9.99577 13.6187 9.30714 13.4817C8.61851 13.3448 7.98596 13.0067 7.48948 12.5102C6.993 12.0137 6.6549 11.3812 6.51792 10.6925C6.38094 10.0039 6.45125 9.2901 6.71994 8.64143C6.98863 7.99275 7.44364 7.43831 8.02743 7.04823C8.61123 6.65816 9.29758 6.44995 9.99971 6.44995C10.466 6.44974 10.9277 6.54142 11.3585 6.71975C11.7893 6.89808 12.1807 7.15956 12.5104 7.48925C12.8401 7.81894 13.1016 8.21038 13.2799 8.64118C13.4582 9.07198 13.5499 9.5337 13.5497 9.99995Z" fill="white" stroke="#007BA4" stroke-width="0.5"/>
</g>
<defs>
<clipPath id="clip0_611_126">
<rect width="20" height="48" fill="white"/>
</clipPath>
</defs>
</svg>
